<?xml version="1.0"?>
<svg xmlns="http://www.w3.org/2000/svg" id="Layer_3" enable-background="new 0 0 64 64" height="512px" viewBox="0 0 64 64" width="512px" class=""><g><path d="m7 31h12v18h-12z" data-original="#000000" class="active-path" data-old_color="#000000" fill="#fff"/><path d="m39 7h-16v10h16zm-2 8h-12v-2h12zm0-4h-12v-2h12z" data-original="#000000" class="active-path" data-old_color="#000000" fill="#fff"/><path d="m11 14v3h2v-3c0-.553.448-1 1-1h3v-2h-3c-.552 0-1-.447-1-1v-3h-2v3c0 .553-.448 1-1 1h-3v2h3c.552 0 1 .447 1 1z" data-original="#000000" class="active-path" data-old_color="#000000" fill="#fff"/><path d="m7 23h32v2h-32z" data-original="#000000" class="active-path" data-old_color="#000000" fill="#fff"/><path d="m37 42v-4c0-.553.448-1 1-1h5v-34h-40v52h36v-4h-16v-2h16v-2h-16v-2h16v-2h-1c-.552 0-1-.447-1-1zm4-7h-18v-2h18zm0-4h-18v-2h18zm-20-25c0-.553.448-1 1-1h18c.552 0 1 .447 1 1v12c0 .553-.448 1-1 1h-18c-.552 0-1-.447-1-1zm-16 4c0-.553.448-1 1-1h3v-3c0-.553.448-1 1-1h4c.552 0 1 .447 1 1v3h3c.552 0 1 .447 1 1v4c0 .553-.448 1-1 1h-3v3c0 .553-.448 1-1 1h-4c-.552 0-1-.447-1-1v-3h-3c-.552 0-1-.447-1-1zm16 40c0 .553-.448 1-1 1h-14c-.552 0-1-.447-1-1v-20c0-.553.448-1 1-1h14c.552 0 1 .447 1 1zm-15-23c-.552 0-1-.447-1-1v-4c0-.553.448-1 1-1h34c.552 0 1 .447 1 1v4c0 .553-.448 1-1 1zm29 16h-12v-2h12zm0-4h-12v-2h12z" data-original="#000000" class="active-path" data-old_color="#000000" fill="#fff"/><path d="m41 43h4v4h-4z" data-original="#000000" class="active-path" data-old_color="#000000" fill="#fff"/><path d="m39 39h8v2h-8z" data-original="#000000" class="active-path" data-old_color="#000000" fill="#fff"/><path d="m41 59c0 1.103.897 2 2 2s2-.897 2-2v-10h-4z" data-original="#000000" class="active-path" data-old_color="#000000" fill="#fff"/><path d="m57 61c-1.103 0-2-.897-2-2v-10h4v10c0 1.103-.897 2-2 2zm2-14h-4v-4h4zm-6-6v-2h8v2z" data-original="#000000" class="active-path" data-old_color="#000000" fill="#fff"/><circle cx="51" cy="31" r="3" data-original="#000000" class="active-path" data-old_color="#000000" fill="#fff"/><circle cx="59" cy="21" r="3" data-original="#000000" class="active-path" data-old_color="#000000" fill="#fff"/><circle cx="51" cy="11" r="3" data-original="#000000" class="active-path" data-old_color="#000000" fill="#fff"/></g> </svg>
