<?xml version="1.0"?>
<svg xmlns="http://www.w3.org/2000/svg" id="Layer_3" enable-background="new 0 0 64 64" height="512px" viewBox="0 0 64 64" width="512px"><g><path d="m51 55v6h-12v-6zm4-12.414-5.707 5.707c-.188.187-.293.442-.293.707v4h-8v-11.586l6-6c.535-.535 1.465-.535 2 0l.586.586c.268.267.414.622.414 1s-.146.733-.414 1l-3.293 3.293 1.414 1.414 3.293-3.292c.645-.645 1-1.502 1-2.415s-.355-1.77-1-2.414v-11.586c0-1.103.897-2 2-2s2 .897 2 2z" data-original="#000000" class="active-path" data-old_color="#000000" fill="#FF0202"/><path d="m33 24v-3h-2v3c0 .552-.447 1-1 1h-3v2h3c.553 0 1 .448 1 1v3h2v-3c0-.552.447-1 1-1h3v-2h-3c-.553 0-1-.448-1-1z" data-original="#000000" class="active-path" data-old_color="#000000" fill="#FF0202"/><path d="m40.009 16.554-8.009-12.681-8.009 12.682c-1.957 3.097-2.991 6.672-2.991 10.335 0 2.956 1.287 5.753 3.53 7.676 1.832 1.57 4.168 2.434 6.579 2.434h1.781c2.411 0 4.747-.864 6.579-2.434 2.243-1.923 3.53-4.72 3.53-7.676.001-3.663-1.033-7.238-2.99-10.336zm-1.009 11.446c0 .552-.447 1-1 1h-3v3c0 .552-.447 1-1 1h-4c-.553 0-1-.448-1-1v-3h-3c-.553 0-1-.448-1-1v-4c0-.552.447-1 1-1h3v-3c0-.552.447-1 1-1h4c.553 0 1 .448 1 1v3h3c.553 0 1 .448 1 1z" data-original="#000000" class="active-path" data-old_color="#000000" fill="#FF0202"/><path d="m14.707 48.293-5.707-5.707v-19.586c0-1.103.897-2 2-2s2 .897 2 2v11.586c-.645.644-1 1.501-1 2.414s.355 1.77 1 2.414l3.293 3.293 1.414-1.414-3.293-3.293c-.268-.267-.414-.622-.414-1s.146-.733.414-1l.586-.585c.535-.535 1.465-.535 2 0l6 6v11.585h-8v-4c0-.265-.105-.52-.293-.707zm10.293 6.707v6h-12v-6z" data-original="#000000" class="active-path" data-old_color="#000000" fill="#FF0202"/></g> </svg>
