<?xml version="1.0"?>
<svg xmlns="http://www.w3.org/2000/svg" id="Layer_3" enable-background="new 0 0 64 64" height="512px" viewBox="0 0 64 64" width="512px" class=""><g><path d="m60 19c-.395 0-.77.081-1.116.22-.345-1.275-1.501-2.22-2.884-2.22-.395 0-.77.081-1.116.22-.345-1.275-1.501-2.22-2.884-2.22s-2.538.945-2.884 2.22c-.346-.139-.721-.22-1.116-.22-1.654 0-3 1.346-3 3v7.184c-.314-.112-.648-.184-1-.184-1.654 0-3 1.346-3 3v3.343c0 3.775 1.417 7.332 4 10.062v5.595h-3c-1.654 0-3 1.346-3 3v2c0 .551-.448 1-1 1s-1-.449-1-1v-2c0-1.654-1.346-3-3-3s-3 1.346-3 3v8c0 .551-.448 1-1 1s-1-.449-1-1v-14c0-1.654-1.346-3-3-3s-3 1.346-3 3v2c0 .551-.448 1-1 1h-3v-5.594c2.583-2.73 4-6.287 4-10.062v-3.344c0-1.654-1.346-3-3-3-.352 0-.686.072-1 .184v-7.184c0-1.654-1.346-3-3-3-.395 0-.77.081-1.116.22-.345-1.275-1.501-2.22-2.884-2.22s-2.538.945-2.884 2.22c-.346-.139-.721-.22-1.116-.22-1.383 0-2.538.945-2.884 2.22-.346-.139-.721-.22-1.116-.22-1.654 0-3 1.346-3 3v11.343c0 3.775 1.417 7.332 4 10.062v18.595c0 .552.447 1 1 1h12c.553 0 1-.448 1-1v-11h3c1.654 0 3-1.346 3-3v-2c0-.551.448-1 1-1s1 .449 1 1v14c0 1.654 1.346 3 3 3s3-1.346 3-3v-8c0-.551.448-1 1-1s1 .449 1 1v2c0 1.654 1.346 3 3 3s3-1.346 3-3v-2c0-.551.448-1 1-1h3v11c0 .552.447 1 1 1h12c.553 0 1-.448 1-1v-18.594c2.583-2.73 4-6.287 4-10.062v-11.344c0-1.654-1.346-3-3-3zm-43 42h-10v-18c0-.265-.105-.52-.293-.707-2.391-2.39-3.707-5.568-3.707-8.95v-11.343c0-.551.448-1 1-1s1 .449 1 1v8h2v-10c0-.551.448-1 1-1s1 .449 1 1v10h2v-12c0-.551.448-1 1-1s1 .449 1 1v12h2v-10c0-.551.448-1 1-1s1 .449 1 1v10 3.101c-2.279.464-4 2.485-4 4.899h2c0-1.654 1.346-3 3-3 .553 0 1-.448 1-1v-4c0-.551.448-1 1-1s1 .449 1 1v3.343c0 3.381-1.316 6.56-3.707 8.95-.188.187-.293.442-.293.707v6h-2v-1c0-.552-.447-1-1-1h-4c-.553 0-1 .448-1 1v4c0 .552.447 1 1 1h4c.553 0 1-.448 1-1v-1h2zm-4-12v2h-2v-2zm48-15.657c0 3.381-1.316 6.56-3.707 8.95-.188.187-.293.442-.293.707v18h-10v-10h2v1c0 .552.447 1 1 1h4c.553 0 1-.448 1-1v-4c0-.552-.447-1-1-1h-4c-.553 0-1 .448-1 1v1h-2v-6c0-.265-.105-.52-.293-.707-2.391-2.39-3.707-5.568-3.707-8.95v-3.343c0-.551.448-1 1-1s1 .449 1 1v4c0 .552.447 1 1 1 1.654 0 3 1.346 3 3h2c0-2.415-1.721-4.435-4-4.899v-3.101-10c0-.551.448-1 1-1s1 .449 1 1v10h2v-12c0-.551.448-1 1-1s1 .449 1 1v12h2v-10c0-.551.448-1 1-1s1 .449 1 1v10h2v-8c0-.551.448-1 1-1s1 .449 1 1zm-10 17.657v-2h2v2z" data-original="#000000" class="active-path" data-old_color="#000000" fill="#29415F"/><path d="m24.466 27.879c2.013 2.013 4.687 3.121 7.534 3.121s5.522-1.108 7.534-3.121l.345-.344c2.013-2.013 3.121-4.689 3.121-7.535 0-2.161-.634-4.253-1.832-6.051l-8.336-12.504c-.371-.557-1.293-.557-1.664 0l-8.336 12.504c-1.198 1.798-1.832 3.89-1.832 6.051 0 2.846 1.108 5.522 3.122 7.537zm.03-12.82 7.504-11.256 7.504 11.256c.978 1.468 1.496 3.176 1.496 4.941 0 2.312-.9 4.486-2.534 6.121l-.345.344c-1.635 1.635-3.809 2.535-6.121 2.535s-4.486-.9-6.121-2.536c0 0-.001 0-.001-.001l-.343-.342c-1.635-1.635-2.535-3.809-2.535-6.121 0-1.765.518-3.473 1.496-4.941z" data-original="#000000" class="active-path" data-old_color="#000000" fill="#29415F"/><path d="m29 23v3c0 .552.447 1 1 1h4c.553 0 1-.448 1-1v-3h3c.553 0 1-.448 1-1v-4c0-.552-.447-1-1-1h-3v-3c0-.552-.447-1-1-1h-4c-.553 0-1 .448-1 1v3h-3c-.553 0-1 .448-1 1v4c0 .552.447 1 1 1zm-2-4h3c.553 0 1-.448 1-1v-3h2v3c0 .552.447 1 1 1h3v2h-3c-.553 0-1 .448-1 1v3h-2v-3c0-.552-.447-1-1-1h-3z" data-original="#000000" class="active-path" data-old_color="#000000" fill="#29415F"/></g> </svg>
