<?xml version="1.0"?>
<svg xmlns="http://www.w3.org/2000/svg" id="Layer_3" enable-background="new 0 0 64 64" height="512px" viewBox="0 0 64 64" width="512px"><g><path d="m4.469 22.484c1.278 1.599 3.185 2.516 5.232 2.516h.598c2.047 0 3.954-.917 5.232-2.516.948-1.182 1.469-2.669 1.469-4.185 0-1.973-.547-3.903-1.58-5.585l-5.42-8.806-5.42 8.807c-1.033 1.681-1.58 3.611-1.58 5.584 0 1.516.521 3.003 1.469 4.185zm5.531-1.484c1.654 0 3-1.346 3-3h2c0 2.757-2.243 5-5 5z" data-original="#000000" class="active-path" data-old_color="#000000" fill="#F90000"/><path d="m47 18.299c0 1.517.521 3.003 1.468 4.186h.001c1.278 1.598 3.185 2.515 5.232 2.515h.598c2.047 0 3.954-.917 5.232-2.516.948-1.182 1.469-2.669 1.469-4.185 0-1.973-.547-3.903-1.58-5.585l-5.42-8.806-5.42 8.807c-1.033 1.681-1.58 3.611-1.58 5.584zm7 2.701c1.654 0 3-1.346 3-3h2c0 2.757-2.243 5-5 5z" data-original="#000000" class="active-path" data-old_color="#000000" fill="#F90000"/><path d="m18.974 17.56 8.266 8.266 3.908-6.351c.363-.592 1.34-.592 1.703 0l3.908 6.351 8.266-8.266c.122-2.084.753-4.109 1.851-5.893l1.99-3.234c-4.938-3.544-10.743-5.433-16.866-5.433s-11.928 1.889-16.867 5.433l1.99 3.233c1.098 1.786 1.73 3.81 1.851 5.894z" data-original="#000000" class="active-path" data-old_color="#000000" fill="#F90000"/><path d="m9.148 37.476c.363-.592 1.34-.592 1.703 0l5.432 8.827 7.188-7.188c-.307-.903-.471-1.855-.471-2.816 0-2.343.649-4.637 1.877-6.632l1.286-2.09-7.381-7.381c-.288 1.286-.859 2.503-1.689 3.538-1.66 2.076-4.137 3.266-6.794 3.266h-.598c-2.164 0-4.2-.8-5.781-2.214-.601 2.346-.92 4.763-.92 7.214 0 4.041.808 7.923 2.4 11.567z" data-original="#000000" class="active-path" data-old_color="#000000" fill="#F90000"/><path d="m26.58 30.715c-1.033 1.681-1.58 3.611-1.58 5.584 0 1.517.521 3.003 1.468 4.186h.001c1.278 1.598 3.185 2.515 5.232 2.515h.598c2.047 0 3.954-.917 5.232-2.516.948-1.182 1.469-2.669 1.469-4.185 0-1.973-.547-3.903-1.58-5.585l-5.42-8.806zm8.42 5.285h2c0 2.757-2.243 5-5 5v-2c1.654 0 3-1.346 3-3z" data-original="#000000" class="active-path" data-old_color="#000000" fill="#F90000"/><path d="m39.603 41.017c-.159.246-.326.487-.51.717-1.66 2.076-4.137 3.266-6.794 3.266h-.598c-2.657 0-5.134-1.19-6.795-3.266-.184-.23-.351-.471-.51-.717l-7.047 7.047c1.076 1.901 1.65 4.045 1.65 6.234 0 1.128-.229 2.24-.65 3.276 4.182 2.235 8.877 3.426 13.651 3.426 4.775 0 9.469-1.191 13.65-3.425-.421-1.036-.65-2.148-.65-3.276 0-2.19.574-4.334 1.651-6.234z" data-original="#000000" class="active-path" data-old_color="#000000" fill="#F90000"/><path d="m54.299 27h-.598c-2.657 0-5.134-1.19-6.795-3.266-.829-1.036-1.4-2.253-1.688-3.538l-7.381 7.381 1.286 2.089c1.228 1.996 1.877 4.29 1.877 6.633 0 .961-.164 1.913-.472 2.815l7.189 7.189 5.432-8.827c.363-.592 1.34-.592 1.703 0l3.749 6.091c1.591-3.644 2.399-7.526 2.399-11.567 0-2.449-.319-4.866-.92-7.215-1.581 1.414-3.617 2.215-5.781 2.215z" data-original="#000000" class="active-path" data-old_color="#000000" fill="#F90000"/><path d="m54 39.908-5.42 8.807c-1.033 1.681-1.58 3.611-1.58 5.584 0 1.517.521 3.003 1.468 4.186h.001c1.278 1.598 3.185 2.515 5.232 2.515h.598c2.047 0 3.954-.917 5.232-2.516.948-1.182 1.469-2.669 1.469-4.185 0-1.973-.547-3.903-1.58-5.585zm0 19.092v-2c1.654 0 3-1.346 3-3h2c0 2.757-2.243 5-5 5z" data-original="#000000" class="active-path" data-old_color="#000000" fill="#F90000"/><path d="m10 39.908-5.42 8.807c-1.033 1.681-1.58 3.611-1.58 5.584 0 1.517.521 3.003 1.468 4.186h.001c1.278 1.598 3.185 2.515 5.232 2.515h.598c2.047 0 3.954-.917 5.232-2.516.948-1.182 1.469-2.669 1.469-4.185 0-1.973-.547-3.903-1.58-5.585zm0 19.092v-2c1.654 0 3-1.346 3-3h2c0 2.757-2.243 5-5 5z" data-original="#000000" class="active-path" data-old_color="#000000" fill="#F90000"/></g> </svg>
