<?xml version="1.0"?>
<svg xmlns="http://www.w3.org/2000/svg" id="Layer_3" enable-background="new 0 0 64 64" height="512px" viewBox="0 0 64 64" width="512px" class=""><g><path d="m25 39h6v16h-6z" data-original="#000000" class="active-path" data-old_color="#000000" fill="#D82222"/><path d="m7 31h4v20h-4z" data-original="#000000" class="active-path" data-old_color="#000000" fill="#D82222"/><path d="m13 27h-8v2h1 6 1z" data-original="#000000" class="active-path" data-old_color="#000000" fill="#D82222"/><path d="m5 53v2h8v-2h-1-6z" data-original="#000000" class="active-path" data-old_color="#000000" fill="#D82222"/><path d="m33 39h6v16h-6z" data-original="#000000" class="active-path" data-old_color="#000000" fill="#D82222"/><path d="m51 24v3h2v-3c0-.552.448-1 1-1h3v-2h-3c-.552 0-1-.448-1-1v-3h-2v3c0 .552-.448 1-1 1h-3v2h3c.552 0 1 .448 1 1z" data-original="#000000" class="active-path" data-old_color="#000000" fill="#D82222"/><path d="m45.536 28.122.343.343c1.635 1.635 3.809 2.535 6.121 2.535s4.486-.9 6.122-2.536l.343-.343c1.635-1.635 2.535-3.809 2.535-6.121 0-3.073-.901-6.049-2.605-8.605l-6.395-9.592-6.395 9.592c-1.704 2.556-2.605 5.532-2.605 8.605 0 2.312.9 4.486 2.536 6.122zm.464-9.122h3v-3c0-.552.448-1 1-1h4c.552 0 1 .448 1 1v3h3c.552 0 1 .448 1 1v4c0 .552-.448 1-1 1h-3v3c0 .552-.448 1-1 1h-4c-.552 0-1-.448-1-1v-3h-3c-.552 0-1-.448-1-1v-4c0-.552.448-1 1-1z" data-original="#000000" class="active-path" data-old_color="#000000" fill="#D82222"/><path d="m49 55v-3c0-.552.448-1 1-1h1v-18.049c-2.23-.206-4.309-1.107-6-2.587v3.636c0 .552-.448 1-1 1h-24c-.552 0-1-.448-1-1v-4c0-.552.448-1 1-1h23.636c-.558-.637-1.038-1.326-1.424-2.061v.061h-27.212v3c0 .552-.448 1-1 1h-1v20h1c.552 0 1 .448 1 1v3h8v-17c0-.552.448-1 1-1h16c.552 0 1 .448 1 1v17z" data-original="#000000" class="active-path" data-old_color="#000000" fill="#D82222"/><circle cx="32" cy="12" r="3" data-original="#000000" class="active-path" data-old_color="#000000" fill="#D82222"/><path d="m21 31h22v2h-22z" data-original="#000000" class="active-path" data-old_color="#000000" fill="#D82222"/><path d="m43.941 12.285.931-1.396-12.872-7.723-26.39 15.834h35.657c.415-2.389 1.312-4.672 2.674-6.715zm-11.941 4.715c-2.757 0-5-2.243-5-5s2.243-5 5-5 5 2.243 5 5-2.243 5-5 5z" data-original="#000000" class="active-path" data-old_color="#000000" fill="#D82222"/><path d="m14 25h27.431c-.281-.963-.431-1.969-.431-3 0-.335.018-.668.037-1h-38.037v4h1z" data-original="#000000" class="active-path" data-old_color="#000000" fill="#D82222"/><path d="m59 53h-1-6-1v2h8z" data-original="#000000" class="active-path" data-old_color="#000000" fill="#D82222"/><path d="m53 32.951v18.049h4v-19.241c-1.233.657-2.587 1.062-4 1.192z" data-original="#000000" class="active-path" data-old_color="#000000" fill="#D82222"/><path d="m50 57h-36-10-1v4h58v-4h-1z" data-original="#000000" class="active-path" data-old_color="#000000" fill="#D82222"/></g> </svg>
