<?xml version="1.0"?>
<svg xmlns="http://www.w3.org/2000/svg" height="512px" viewBox="-81 0 474 474.136" width="512px" class=""><g><path d="m120.066406 178.136719s-112 114.144531-112 176 50.144532 112 112 112c61.859375 0 112-50.144531 112-112s-112-176-112-176zm0 0" fill="#9bc9ff" data-original="#9BC9FF"/><path d="m304.066406 138.136719c0-16.9375-27.75-61.046875-64-104.410157-34.398437 41.25-64 86.152344-64 104.410157 0 35.34375 28.65625 64 64 64 35.347656 0 64-28.65625 64-64zm0 0" fill="#9bc9ff" data-original="#9BC9FF"/><path d="m128.066406 67.328125c-1.597656-6.296875-11.246094-25.449219-32-53.785156-19.542968 26.65625-30.308594 46.402343-32 53.601562-.046875 17.671875 14.242188 32.039063 31.914063 32.085938 17.671875.050781 32.039062-14.238281 32.085937-31.910157zm0 0" fill="#9bc9ff" data-original="#9BC9FF"/><g fill="#1e81ce"><path d="m120.066406 474.136719c-66.242187-.074219-119.921875-53.757813-119.9999998-120 0-64.394531 109.6015628-176.800781 114.2890628-181.601563l5.710937-5.824218 5.714844 5.824218c4.6875 4.800782 114.285156 117.207032 114.285156 181.601563-.074218 66.242187-53.753906 119.925781-120 120zm0-284.410157c-22.535156 24-104 114.273438-104 164.410157 0 57.4375 46.5625 104 104 104s104-46.5625 104-104c0-50.167969-81.460937-140.402344-104-164.410157zm0 0" data-original="#1E81CE" class="active-path" style="fill:#C80D3C" data-old_color="#1E81CE"/><path d="m112.066406 426.136719c-39.746094-.042969-71.953125-32.253907-72-72h16c.042969 30.910156 25.089844 55.960937 56 56zm0 0" data-original="#1E81CE" class="active-path" style="fill:#C80D3C" data-old_color="#1E81CE"/><path d="m240.066406 210.136719c-39.746094-.042969-71.953125-32.253907-72-72 0-29.175781 54.882813-96.359375 65.882813-109.527344l6.117187-7.351563 6.144532 7.34375c30.386718 36.351563 65.855468 86.847657 65.855468 109.535157-.042968 39.746093-32.253906 71.957031-72 72zm0-163.832031c-36.796875 45.261718-56 80.121093-56 91.832031 0 30.925781 25.074219 56 56 56 30.929688 0 56-25.074219 56-56 0-11.464844-19.558594-47.015625-56-91.832031zm0 0" data-original="#1E81CE" class="active-path" style="fill:#C80D3C" data-old_color="#1E81CE"/><path d="m96.066406 106.136719c-21.644531.105469-39.410156-17.097657-40-38.738281v-1.046876l.242188-1.023437c2.296875-9.847656 15.382812-32 33.335937-56.519531l6.421875-8.808594 6.457032 8.800781c19.929687 27.261719 31.046874 48 33.25 56.503907l.292968 1.152343v1.167969c-.722656 21.542969-18.445312 38.605469-40 38.511719zm-23.925781-38.113281c1.078125 12.441406 11.441406 22.019531 23.925781 22.113281 12.441406.046875 22.835938-9.457031 23.90625-21.847657-6.382812-14.53125-14.402344-28.28125-23.90625-40.992187-9.515625 12.609375-17.546875 26.273437-23.925781 40.726563zm0 0" data-original="#1E81CE" class="active-path" style="fill:#C80D3C" data-old_color="#1E81CE"/></g></g> </svg>
