<?xml version="1.0"?>
<svg xmlns="http://www.w3.org/2000/svg" height="512px" viewBox="0 0 64 64" width="512px"><g><path d="m53.443 1.1a1 1 0 0 0 -1.049.1l-2.014 1.542-2.014-1.537a1 1 0 0 0 -1.212 0l-2.023 1.538-2.015-1.538a1 1 0 0 0 -1.213 0l-2.014 1.538-2.024-1.543a1 1 0 0 0 -1.212 0l-2.014 1.543-2.024-1.543a1 1 0 0 0 -1.212 0l-2.013 1.542-2.014-1.537a1 1 0 0 0 -1.213 0l-2.014 1.538-2.024-1.543a1 1 0 0 0 -1.211 0l-2.024 1.544-2.025-1.544a1 1 0 0 0 -1.211 0l-2.024 1.544-2.025-1.544a1 1 0 0 0 -1.605.8v60a1 1 0 0 0 1 1h42a1 1 0 0 0 1-1v-60a1 1 0 0 0 -.557-.9zm-40.419 3.7a1 1 0 0 0 1.211 0l2.025-1.54 2.024 1.54a1 1 0 0 0 1.211 0l2.025-1.54 1.634 1.24a.969.969 0 0 0 -.154.5v53.586l-5.293-5.293c-.01-.01-.023-.013-.033-.022s-.013-.022-.024-.03a.81.81 0 0 0 -.138-.077.981.981 0 0 0 -.175-.1.922.922 0 0 0 -.18-.034.938.938 0 0 0 -.2-.023 1.537 1.537 0 0 0 -.667.285c-.01.01-.013.023-.022.033s-.021.013-.03.023l-4.238 4.952v-54.283zm-.707 56.2 4.739-5.53 5.237 5.237a1 1 0 0 0 .707.293zm39.683 0h-27v-56a1.008 1.008 0 0 0 -.068-.339l1.838-1.4 2.013 1.539a1 1 0 0 0 1.217 0l2.015-1.538 2.019 1.538a1 1 0 0 0 1.212 0l2.015-1.538 2.023 1.538a1 1 0 0 0 1.212 0l2.014-1.542 2.013 1.542a1 1 0 0 0 1.212 0l2.024-1.539 2.014 1.539a1 1 0 0 0 1.213 0l1.014-.779z" data-original="#000000" class="active-path" data-old_color="#000000" fill="#F6F2F2"/><path d="m17 52a1 1 0 0 0 1-1v-31a1 1 0 0 0 -2 0v31a1 1 0 0 0 1 1z" data-original="#000000" class="active-path" data-old_color="#000000" fill="#F6F2F2"/><path d="m17 18a1 1 0 0 0 1-1v-1a1 1 0 0 0 -2 0v1a1 1 0 0 0 1 1z" data-original="#000000" class="active-path" data-old_color="#000000" fill="#F6F2F2"/><path d="m47 11h-16a3 3 0 0 0 0 6h16a3 3 0 0 0 0-6zm0 4h-16a1 1 0 0 1 0-2h16a1 1 0 0 1 0 2z" data-original="#000000" class="active-path" data-old_color="#000000" fill="#F6F2F2"/><path d="m49 30h-20a1 1 0 0 0 -1 1v6a1 1 0 0 0 1 1h20a1 1 0 0 0 1-1v-6a1 1 0 0 0 -1-1zm-1 6h-18v-4h18z" data-original="#000000" class="active-path" data-old_color="#000000" fill="#F6F2F2"/><path d="m49 40h-20a1 1 0 0 0 0 2h20a1 1 0 0 0 0-2z" data-original="#000000" class="active-path" data-old_color="#000000" fill="#F6F2F2"/><path d="m44 44h-15a1 1 0 0 0 0 2h15a1 1 0 0 0 0-2z" data-original="#000000" class="active-path" data-old_color="#000000" fill="#F6F2F2"/><path d="m48 44h-1a1 1 0 0 0 0 2h1a1 1 0 0 0 0-2z" data-original="#000000" class="active-path" data-old_color="#000000" fill="#F6F2F2"/></g> </svg>
