<?xml version="1.0"?>
<svg xmlns="http://www.w3.org/2000/svg" id="Layer_3" enable-background="new 0 0 64 64" height="512px" viewBox="0 0 64 64" width="512px" class=""><g><path d="m26.701 27h.598c2.657 0 5.134-1.19 6.794-3.266 1.23-1.536 1.907-3.466 1.907-5.435 0-2.343-.649-4.637-1.877-6.633l-6.271-10.19c-.363-.592-1.34-.592-1.703 0l-6.271 10.191c-1.229 1.995-1.878 4.289-1.878 6.632 0 1.969.677 3.899 1.906 5.436 1.661 2.075 4.138 3.265 6.795 3.265zm-5.121-14.285 5.42-8.807 5.42 8.806c1.033 1.682 1.58 3.612 1.58 5.585 0 1.517-.521 3.003-1.469 4.186-1.278 1.598-3.185 2.515-5.232 2.515h-.598c-2.047 0-3.954-.917-5.232-2.516h-.001c-.947-1.182-1.468-2.669-1.468-4.185 0-1.973.547-3.903 1.58-5.584z" data-original="#000000" class="active-path" data-old_color="#000000" fill="#A32626"/><path d="m32 18h-2c0 1.654-1.346 3-3 3v2c2.757 0 5-2.243 5-5z" data-original="#000000" class="active-path" data-old_color="#000000" fill="#A32626"/><path d="m20 49h-5v-5c0-.553-.447-1-1-1h-6c-.553 0-1 .447-1 1v5h-5c-.553 0-1 .447-1 1v6c0 .553.447 1 1 1h5v5c0 .553.447 1 1 1h6c.553 0 1-.447 1-1v-5h5c.553 0 1-.447 1-1v-6c0-.553-.447-1-1-1zm-1 6h-5c-.553 0-1 .447-1 1v5h-4v-5c0-.553-.447-1-1-1h-5v-4h5c.553 0 1-.447 1-1v-5h4v5c0 .553.447 1 1 1h5z" data-original="#000000" class="active-path" data-old_color="#000000" fill="#A32626"/><path d="m55 47c-4.072 0-7.436 3.06-7.931 7h-6.069c-.552 0-1-.448-1-1v-2c0-2.206-1.794-4-4-4s-4 1.794-4 4v8c0 1.103-.897 2-2 2s-2-.897-2-2v-16h1c.553 0 1-.447 1-1v-5.18c12.971-1.498 23-12.664 23-25.82v-3c0-2.757-2.243-5-5-5h-5v-1c0-.553-.447-1-1-1h-4c-.553 0-1 .447-1 1v8c0 .553.447 1 1 1h4c.553 0 1-.447 1-1v-1h4v2c0 11.028-8.972 20-20 20s-20-8.972-20-20v-2h4v1c0 .553.447 1 1 1h4c.553 0 1-.447 1-1v-8c0-.553-.447-1-1-1h-4c-.553 0-1 .447-1 1v1h-5c-2.757 0-5 2.243-5 5v3c0 13.156 10.029 24.322 23 25.82v5.18c0 .553.447 1 1 1h1v16c0 2.206 1.794 4 4 4s4-1.794 4-4v-8c0-1.103.897-2 2-2s2 .897 2 2v2c0 1.654 1.346 3 3 3h6.069c.495 3.94 3.859 7 7.931 7 4.411 0 8-3.589 8-8s-3.589-8-8-8zm-14-38h-2v-6h2zm-28-6h2v6h-2zm12.079 31.916c-12.381-.98-22.079-11.485-22.079-23.916v-3c0-1.654 1.346-3 3-3h5v2h-4c-1.103 0-2 .897-2 2v2c0 12.131 9.869 22 22 22s22-9.869 22-22v-2c0-1.103-.897-2-2-2h-4v-2h5c1.654 0 3 1.346 3 3v3c0 12.431-9.698 22.936-22.079 23.916-.52.041-.921.476-.921.997v5.087h-2v-5.087c0-.521-.401-.956-.921-.997zm29.921 26.084c-3.309 0-6-2.691-6-6s2.691-6 6-6 6 2.691 6 6-2.691 6-6 6z" data-original="#000000" class="active-path" data-old_color="#000000" fill="#A32626"/><path d="m55 51c-2.206 0-4 1.794-4 4s1.794 4 4 4 4-1.794 4-4-1.794-4-4-4zm0 6c-1.103 0-2-.897-2-2s.897-2 2-2 2 .897 2 2-.897 2-2 2z" data-original="#000000" class="active-path" data-old_color="#000000" fill="#A32626"/></g> </svg>
