<?xml version="1.0"?>
<svg xmlns="http://www.w3.org/2000/svg" xmlns:xlink="http://www.w3.org/1999/xlink" version="1.1" id="Capa_1" x="0px" y="0px" viewBox="0 0 512 512" style="enable-background:new 0 0 512 512;" xml:space="preserve" width="512px" height="512px" class=""><g><g>
	<g>
		<path d="M201.526,199.875l-77.08-40.849l26.05,8.511l9.509-33.541l-24.741-8.083l27.092,3.482l-14.416-8.806    c-19.815-12.104-45.791-3.129-53.904,18.634c-6.854,18.384,1.852,38.921,19.829,46.779l68.97,30.152    c11.08,1.117,17.978-3.459,19.802-8.003C203.937,204.912,201.526,199.875,201.526,199.875z" data-original="#000000" class="active-path" data-old_color="#000000" fill="#B22626"/>
	</g>
</g><g>
	<g>
		<circle cx="72.564" cy="90.544" r="37.379" data-original="#000000" class="active-path" data-old_color="#000000" fill="#B22626"/>
	</g>
</g><g>
	<g>
		<path d="M294.021,137.792c-2.968-9.15-12.795-14.159-21.943-11.192l-69.154,22.569c4.984,3.798,10.566,8.307,13.487,11.517    c5.296,5.825,9.408,11.329,12.585,16.516l53.833-17.467C291.98,156.766,296.991,146.942,294.021,137.792z" data-original="#000000" class="active-path" data-old_color="#000000" fill="#B22626"/>
	</g>
</g><g>
	<g>
		<path d="M28.295,160.157c-10.088-4.556-21.961-0.07-26.514,10.019c-4.555,10.088-0.069,21.96,10.019,26.514l82.296,37.158    c2.363-5.648,5.992-11.166,11.496-15.711c8.087-6.678,18.304-9.774,30.531-9.293L28.295,160.157z" data-original="#000000" class="active-path" data-old_color="#000000" fill="#B22626"/>
	</g>
</g><g>
	<g>
		<path d="M491.957,294.322c11.069,0,20.042-8.973,20.042-20.043s-8.973-20.042-20.042-20.042H236.656l-23.64-10.674    c-19.27,9.689-44.915,10.18-60.219,4.54c-15.456-5.696-22.895-4.526-24.853-2.936c-0.779,0.632-1.384,1.755-1.842,3.135    l97.991,44.245c2.593,1.17,5.404,1.776,8.247,1.776h5.003l96.741,64.382l-109.067,72.584c-6.911,4.6-8.786,13.931-4.186,20.842    c4.601,6.913,13.931,8.785,20.842,4.186l119.543-79.556l119.543,79.556c6.917,4.603,16.247,2.721,20.842-4.186    c4.6-6.911,2.726-16.242-4.186-20.842l-109.067-72.584l96.741-64.382H491.957z M361.218,340.647l-69.61-46.325h139.218    L361.218,340.647z" data-original="#000000" class="active-path" data-old_color="#000000" fill="#B22626"/>
	</g>
</g><g>
	<g>
		<path d="M208.998,167.427c-3.23-3.553-11.272-9.683-16.164-13.297l-4.398,15.513c4.124,3.168,8.009,6.322,9.441,7.897    c9.819,10.799,19.804,25.682,13.073,36.212c-10.685,16.714-36.757,15.534-49.487,10.843c-22-8.107-38.65-7.68-49.488,1.27    c-9.416,7.775-11.664,19.885-11.951,28.383c-4.874,2.892-7.635,8.093-7.635,13.367v3.737H79.052c-3.96,0-7.171,3.211-7.171,7.171    v73.015c0,3.96,3.211,7.171,7.171,7.171h57.767c3.96,0,7.171-3.211,7.171-7.171v-73.015c-0.001-3.96-3.212-7.171-7.172-7.171    h-13.334v-3.737c0-5.801-3.269-11.145-8.422-13.809c1.174-23.441,18.785-22.875,41.201-15.106    c23.958,8.303,54.219,2.642,67.15-16.547C230.277,211.968,233.347,194.208,208.998,167.427z" data-original="#000000" class="active-path" data-old_color="#000000" fill="#B22626"/>
	</g>
</g><g>
	<g>
		<path d="M450.642,199.842h-58.286l-42.084-61.513c-6.28-9.18-18.772-11.604-28.031-5.442l-12.494,8.317    c0.885,14.372-7.979,28.081-22.311,32.731l-46.222,14.998l-5.681,1.844c5.977,17.311,1,29.838-3.81,36.975    c-1.756,2.605-3.816,4.962-6.097,7.109c9.576,4.187,12.923,5.621,12.923,5.621h212.093c11.222,0,20.32-9.098,20.32-20.32    C470.963,208.941,461.865,199.842,450.642,199.842z M295.002,199.841l33.057-22.005l15.055,22.005H295.002z" data-original="#000000" class="active-path" data-old_color="#000000" fill="#B22626"/>
	</g>
</g></g> </svg>
