<svg width="580" height="400" xmlns="http://www.w3.org/2000/svg">
 <!-- Created with Method Draw - http://github.com/duopixel/Method-Draw/ -->
 <g>
  <title>Layer 1</title>
  <path id="svg_1" d="m1.5,49.05c0,0 90,-43 176,-8c86,35 94,106 151,69c57,-37 -7,-72 73,-46c80,26 124,56 140,56c16,0 25,-56 15,-58" opacity="0.5" stroke-width="1.5" stroke="#000" fill="#fff"/>
 </g>
 <g>
  <title>background</title>
  <rect fill="#fff" id="canvas_background" height="402" width="582" y="-4" x="-5"/>
  <g display="none" overflow="visible" y="0" x="0" height="100%" width="100%" id="canvasGrid">
   <rect fill="url(#gridpattern)" stroke-width="0" y="0" x="0" height="100%" width="100%"/>
  </g>
  <path stroke="#000" transform="rotate(-172.04664611816406 308.92626953124994,6.182861328125003) " id="svg_2" d="m-43.395881,-53.047371c0,0 54.06953,-85.04313 112.53727,-50.64258c58.46774,34.40055 58.66197,55.95727 118.27614,54.52391c59.61416,-1.43335 94.77164,-125.71661 179.60718,-68.38236c84.83554,57.33424 75.85026,39.39689 140.05013,7.86306c64.19987,-31.53384 77.77085,-13.59649 107.57793,13.63728c29.80709,27.23377 89.42125,124.70199 -2.86606,94.52984c-13.1839,33.03886 -24.64817,-28.59546 -59.04095,1.50502c-34.39279,30.10048 -60.76059,110.36843 -87.12839,67.36775c-26.36781,-43.00069 -119.22833,12.9002 -161.6461,34.40054c-42.41777,21.50035 -36.68564,68.8011 -85.98197,25.80042c-49.29632,-43.00069 -165.08537,-64.50103 -197.18531,-40.13398c-32.09993,24.36706 -40.12491,-31.53383 -42.41777,-67.36774c-2.29285,-35.8339 -21.7821,-73.10116 -21.7821,-73.10116z" stroke-width="0" fill="#B22626"/>
 </g>
</svg>