<?xml version="1.0"?>
<svg xmlns="http://www.w3.org/2000/svg" height="512px" viewBox="0 0 64 64" width="512px" class=""><g><path d="m49 45-3-2-3 2v-4h-12v10h-28v2a4 4 0 0 0 4 4h24v2a2.006 2.006 0 0 0 2 2h26a2.006 2.006 0 0 0 2-2v-18h-12z" fill="#9bc9ff" data-original="#9BC9FF" class="" data-old_color="#9bc9ff" style="fill:#0D2036"/><path d="m59 31h-10v6h12v-4a2.006 2.006 0 0 0 -2-2z" fill="#9bc9ff" data-original="#9BC9FF" class="" data-old_color="#9bc9ff" style="fill:#0D2036"/><path d="m45 7a4 4 0 0 0 -8 0v4h8z" fill="#9bc9ff" data-original="#9BC9FF" class="" data-old_color="#9bc9ff" style="fill:#0D2036"/><path d="m33 31a2.006 2.006 0 0 0 -2 2v4h12v-6z" fill="#9bc9ff" data-original="#9BC9FF" class="" data-old_color="#9bc9ff" style="fill:#0D2036"/><g fill="#57a4ff"><path d="m59 30h-21v-18h7a1 1 0 0 0 1-1v-4a5.006 5.006 0 0 0 -5-5h-30a5.006 5.006 0 0 0 -5 5v43h-3a1 1 0 0 0 -1 1v2a5.006 5.006 0 0 0 5 5h23v1a3 3 0 0 0 3 3h26a3 3 0 0 0 3-3v-26a3 3 0 0 0 -3-3zm1 3v3h-10v-4h9a1 1 0 0 1 1 1zm-18 7h-10v-2h10zm0-4h-10v-3a1 1 0 0 1 1-1h9zm2-4h4v11.132l-1.445-.964a1 1 0 0 0 -1.11 0l-1.445.964zm6 6h10v2h-10zm-6-31v3h-6v-3a3 3 0 0 1 6 0zm-36 0a3 3 0 0 1 3-3h26.026a4.948 4.948 0 0 0 -1.026 3v23h-3a3 3 0 0 0 -3 3v17h-22zm-1 49a3 3 0 0 1 -3-3v-1h26v4zm52 4h-26a1 1 0 0 1 -1-1v-17h10v3a1 1 0 0 0 1.555.832l2.445-1.632 2.445 1.63a1 1 0 0 0 1.555-.83v-3h10v17a1 1 0 0 1 -1 1z" data-original="#000000" class="active-path" style="fill:#FF824A" data-old_color="#000000"/><path d="m56 49h2v2h-2z" data-original="#000000" class="active-path" style="fill:#FF824A" data-old_color="#000000"/><path d="m56 56h-3v2h4a1 1 0 0 0 1-1v-4h-2z" data-original="#000000" class="active-path" style="fill:#FF824A" data-old_color="#000000"/><path d="m12 8h4v2h-4z" data-original="#000000" class="active-path" style="fill:#FF824A" data-old_color="#000000"/><path d="m18 8h8v2h-8z" data-original="#000000" class="active-path" style="fill:#FF824A" data-old_color="#000000"/><path d="m28 8h4v2h-4z" data-original="#000000" class="active-path" style="fill:#FF824A" data-old_color="#000000"/><path d="m12 14h20v2h-20z" data-original="#000000" class="active-path" style="fill:#FF824A" data-old_color="#000000"/><path d="m12 20h20v2h-20z" data-original="#000000" class="active-path" style="fill:#FF824A" data-old_color="#000000"/><path d="m12 26h20v2h-20z" data-original="#000000" class="active-path" style="fill:#FF824A" data-old_color="#000000"/><path d="m12 32h14v2h-14z" data-original="#000000" class="active-path" style="fill:#FF824A" data-old_color="#000000"/><path d="m12 38h14v2h-14z" data-original="#000000" class="active-path" style="fill:#FF824A" data-old_color="#000000"/><path d="m12 44h14v2h-14z" data-original="#000000" class="active-path" style="fill:#FF824A" data-old_color="#000000"/></g></g> </svg>
