<?xml version="1.0"?>
<svg xmlns="http://www.w3.org/2000/svg" height="512px" viewBox="-20 0 496 496" width="512px" class="hovered-paths"><g><path d="m120 216v-24h24v-48h-24v-24h-48v24h-24v48h24v24zm-56-40v-16h24v-24h16v24h24v16h-24v24h-16v-24zm0 0" data-original="#000000" class="hovered-path active-path" data-old_color="#000000" fill="#770707"/><path d="m192 168v-3.191406c0-20.5625-6.425781-40.183594-18.585938-56.769532l-77.414062-105.566406-77.414062 105.566406c-12.160157 16.585938-18.585938 36.207032-18.585938 56.769532v3.191406c0 52.9375 43.0625 96 96 96s96-43.0625 96-96zm-176 0v-3.191406c0-17.136719 5.351562-33.488282 15.488281-47.3125l64.511719-87.96875 64.511719 87.976562c10.136719 13.816406 15.488281 30.167969 15.488281 47.304688v3.191406c0 44.113281-35.886719 80-80 80s-80-35.886719-80-80zm0 0" data-original="#000000" class="hovered-path active-path" data-old_color="#000000" fill="#770707"/><path d="m456 352v-16h-120v-16h16v-32h24v-224h-24v-48h24v-16h-96v16h24v48h-24v224h24v32h16v16h-62.3125c-4.75 0-9.351562-1.390625-13.3125-4.03125l-31.871094-21.25c-6.601562-4.390625-14.273437-6.71875-22.191406-6.71875h-94.3125c-13.230469 0-24 10.769531-24 24v24h-16c-13.230469 0-24 10.769531-24 24 0 6.167969 2.40625 11.742188 6.238281 16-3.839843 4.257812-6.238281 9.832031-6.238281 16s2.40625 11.742188 6.238281 16c-3.839843 4.257812-6.238281 9.832031-6.238281 16s2.40625 11.742188 6.238281 16c-3.839843 4.257812-6.238281 9.832031-6.238281 16 0 13.230469 10.769531 24 24 24h145.832031c5.113281 0 10.113281-.960938 14.855469-2.855469l28.550781-11.425781c2.859375-1.144531 5.859375-1.71875 8.929688-1.71875h201.832031v-16h-201.832031c-5.113281 0-10.113281.960938-14.855469 2.855469l-28.550781 11.425781c-2.859375 1.144531-5.859375 1.71875-8.929688 1.71875h-43.207031c.886719-2.503906 1.375-5.191406 1.375-8 0-6.167969-2.40625-11.742188-6.238281-16 3.839843-4.257812 6.238281-9.832031 6.238281-16s-2.40625-11.742188-6.238281-16c3.839843-4.257812 6.238281-9.832031 6.238281-16 0-2.359375-.449219-4.59375-1.089844-6.753906 21.347656 14.59375 46.683594 22.753906 73.089844 22.753906v-16c-33.246094 0-64.726562-14.480469-86.367188-39.726562l-13.953124-16.273438h-19.679688v56c0 13.230469-10.769531 24-24 24v-104c0-4.40625 3.59375-8 8-8h94.3125c4.75 0 9.351562 1.390625 13.3125 4.03125l31.871094 21.25c6.601562 4.390625 14.273437 6.71875 22.183594 6.71875h62.320312v79.054688c-7.128906-1.910157-7.9375-6.222657-8-7.285157l-8 .230469h-8c0 8.304688 6.6875 24 32 24s32-15.695312 32-24l-16-.230469c-.070312 1.0625-.871094 5.367188-8 7.285157v-79.054688zm-136-336h16v48h-16zm-24 224h40v-16h-40v-16h16v-16h-16v-16h40v-16h-40v-16h16v-16h-16v-16h40v-16h-40v-16h64v192h-64zm40 48v16h-16v-16zm-264 128h-16c-4.40625 0-8-3.59375-8-8s3.59375-8 8-8h16zm-16-48h16v16h-16c-4.40625 0-8-3.59375-8-8s3.59375-8 8-8zm80 112h-80c-4.40625 0-8-3.59375-8-8s3.59375-8 8-8h80c4.40625 0 8 3.59375 8 8s-3.59375 8-8 8zm-8-80h8c4.40625 0 8 3.59375 8 8s-3.59375 8-8 8h-8.808594c.527344-2.585938.808594-5.265625.808594-8zm0-27.703125 5.480469 6.390625c1.503906 1.761719 3.175781 3.320312 4.765625 4.984375-.71875.214844-1.476563.328125-2.246094.328125h-8zm-8 59.457031v.246094h16c4.40625 0 8 3.59375 8 8s-3.59375 8-8 8h-80c-4.40625 0-8-3.59375-8-8s3.59375-8 8-8h16c0 8.824219 7.175781 16 16 16 13.128906 0 24.703125-6.449219 32-16.246094zm0 0" data-original="#000000" class="hovered-path active-path" data-old_color="#000000" fill="#770707"/></g> </svg>
