<?xml version="1.0"?>
<svg xmlns="http://www.w3.org/2000/svg" height="512px" viewBox="0 0 496 496" width="512px" class=""><g><path d="m496 116c0-7.839844-3.257812-14.910156-8.464844-20 5.207032-5.089844 8.464844-12.160156 8.464844-20 0-15.441406-12.558594-28-28-28h-28v-24c0-13.230469-10.769531-24-24-24h-94.3125c-7.917969 0-15.589844 2.328125-22.183594 6.71875l-31.871094 21.25c-3.96875 2.640625-8.570312 4.03125-13.320312 4.03125h-254.3125v168h99.375l-56.878906 126.863281c-6.96875 15.535157-10.496094 32.058594-10.496094 49.136719 0 66.167969 53.832031 120 120 120s120-53.832031 120-120.046875c0-17.03125-3.527344-33.554687-10.496094-49.089844l-56.878906-126.863281h36.800781c3.269531 0 6.453125.65625 9.460938 1.9375l43.921875 18.832031c5.015625 2.140625 10.3125 3.230469 15.757812 3.230469h157.433594c15.441406 0 28-12.558594 28-28 0-7.839844-3.257812-14.910156-8.464844-20 5.207032-5.089844 8.464844-12.160156 8.464844-20s-3.257812-14.910156-8.464844-20c5.207032-5.089844 8.464844-12.160156 8.464844-20zm-28-52c6.617188 0 12 5.382812 12 12s-5.382812 12-12 12h-28v-24zm-212 312c0 57.34375-46.65625 104-104 104s-104-46.65625-104-104.046875c0-14.769531 3.0625-29.082031 9.097656-42.539063l92.078125-205.414062h5.640625l92.085938 205.414062c6.035156 13.457032 9.097656 27.769532 9.097656 42.585938zm66.703125-168h-12.136719c-3.269531 0-6.453125-.65625-9.460937-1.9375l-43.921875-18.832031c-5.007813-2.140625-10.304688-3.230469-15.75-3.230469h-43.976563l-25.105469-56h19.648438v-16h-80v16h19.648438l-25.105469 56h-90.542969v-136h238.3125c7.917969 0 15.589844-2.328125 22.183594-6.71875l31.871094-21.25c3.96875-2.640625 8.570312-4.03125 13.320312-4.03125h94.3125c4.414062 0 8 3.59375 8 8v120c-13.230469 0-24-10.769531-24-24v-72h-19.679688l-13.945312 16.273438c-21.640625 25.246093-53.128906 39.726562-86.375 39.726562v16c13.839844 0 27.390625-2.246094 40.246094-6.441406-.070313.816406-.246094 1.601562-.246094 2.441406 0 7.839844 3.257812 14.910156 8.464844 20-5.207032 5.089844-8.464844 12.160156-8.464844 20s3.257812 14.910156 8.464844 20c-5.207032 5.089844-8.464844 12.160156-8.464844 20 0 4.296875.96875 8.359375 2.703125 12zm13.296875-92c0-6.617188 5.382812-12 12-12h36v16c0 2.734375.28125 5.414062.808594 8h-36.808594c-6.617188 0-12-5.382812-12-12zm48-28h-18.929688c4.738282-4.121094 9.296876-8.480469 13.441407-13.3125l5.488281-6.390625zm96 108c0 6.617188-5.382812 12-12 12h-120c-6.617188 0-12-5.382812-12-12s5.382812-12 12-12h120c6.617188 0 12 5.382812 12 12zm0-40c0 6.617188-5.382812 12-12 12h-120c-6.617188 0-12-5.382812-12-12s5.382812-12 12-12h44.207031c7.3125 9.65625 18.785157 16 31.792969 16 8.824219 0 16-7.175781 16-16h28c6.617188 0 12 5.382812 12 12zm-40-28v-24h28c6.617188 0 12 5.382812 12 12s-5.382812 12-12 12zm0 0" data-original="#000000" class="active-path" data-old_color="#000000" fill="#690505"/><path d="m136 376c-26.472656 0-48 17.945312-48 40s21.527344 40 48 40 48-17.945312 48-40-21.527344-40-48-40zm0 64c-17.648438 0-32-10.769531-32-24s14.351562-24 32-24 32 10.769531 32 24-14.351562 24-32 24zm0 0" data-original="#000000" class="active-path" data-old_color="#000000" fill="#690505"/><path d="m152 224c-26.472656 0-48 17.945312-48 40s21.527344 40 48 40 48-17.945312 48-40-21.527344-40-48-40zm0 64c-17.648438 0-32-10.769531-32-24s14.351562-24 32-24 32 10.769531 32 24-14.351562 24-32 24zm0 0" data-original="#000000" class="active-path" data-old_color="#000000" fill="#690505"/><path d="m216 408c13.230469 0 24-10.769531 24-24s-10.769531-24-24-24v16c4.414062 0 8 3.59375 8 8s-3.585938 8-8 8-8-3.59375-8-8h-16c0 13.230469 10.769531 24 24 24zm0 0" data-original="#000000" class="active-path" data-old_color="#000000" fill="#690505"/><path d="m128 336h-16c0 4.40625-3.585938 8-8 8s-8-3.59375-8-8 3.585938-8 8-8v-16c-13.230469 0-24 10.769531-24 24s10.769531 24 24 24 24-10.769531 24-24zm0 0" data-original="#000000" class="active-path" data-old_color="#000000" fill="#690505"/></g> </svg>
