<?xml version="1.0"?>
<svg xmlns="http://www.w3.org/2000/svg" height="512px" viewBox="0 0 496 496" width="512px"><g><path d="m152 176c9.039062 0 17.296875-3.128906 24-8.207031v2.039062c0 3.0625-.574219 6.0625-1.71875 8.910157l-11.425781 28.5625c-1.894531 4.75-2.855469 9.75-2.855469 14.863281v121.832031h16v-121.832031c0-3.0625.574219-6.0625 1.71875-8.910157l11.425781-28.5625c1.894531-4.75 2.855469-9.75 2.855469-14.863281v-145.832031c0-13.230469-10.769531-24-24-24-6.167969 0-11.742188 2.40625-16 6.238281-4.257812-3.832031-9.832031-6.238281-16-6.238281s-11.742188 2.40625-16 6.238281c-4.257812-3.832031-9.832031-6.238281-16-6.238281s-11.742188 2.40625-16 6.238281c-4.257812-3.832031-9.832031-6.238281-16-6.238281-13.230469 0-24 10.769531-24 24v16h-24c-13.230469 0-24 10.769531-24 24v94.3125c0 7.917969 2.328125 15.589844 6.71875 22.183594l21.25 31.871094c2.640625 3.96875 4.03125 8.570312 4.03125 13.320312v118.3125h16v-118.3125c0-7.917969-2.328125-15.589844-6.71875-22.183594l-21.25-31.871094c-2.640625-3.96875-4.03125-8.570312-4.03125-13.320312v-94.3125c0-4.40625 3.59375-8 8-8h104c0 13.230469-10.769531 24-24 24h-56v24c0 2.359375.449219 4.601562 1.089844 6.761719-.714844 3-1.089844 6.085937-1.089844 9.238281v16c0 22.054688 17.945312 40 40 40zm16-160c4.40625 0 8 3.59375 8 8v80c0 4.40625-3.59375 8-8 8s-8-3.59375-8-8v-80c0-4.40625 3.59375-8 8-8zm-64 0c4.40625 0 8 3.59375 8 8v16h-16v-16c0-4.40625 3.59375-8 8-8zm-40 8c0-4.40625 3.59375-8 8-8s8 3.59375 8 8v16h-16zm80 32c0-8.824219-7.175781-16-16-16v-16c0-4.40625 3.59375-8 8-8s8 3.59375 8 8v80c0 4.40625-3.59375 8-8 8s-8-3.59375-8-8v-16h-.246094c9.796875-7.296875 16.246094-18.871094 16.246094-32zm-32 39.191406v8.808594c0 4.40625-3.59375 8-8 8s-8-3.59375-8-8v-8h8c2.734375 0 5.414062-.28125 8-.808594zm-32 8.808594c0 4.40625-3.59375 8-8 8s-8-3.59375-8-8v-8h16zm-16 32v-9.472656c2.511719.898437 5.183594 1.472656 8 1.472656 6.167969 0 11.742188-2.40625 16-6.238281 4.257812 3.839843 9.832031 6.238281 16 6.238281s11.742188-2.40625 16-6.238281c4.257812 3.839843 9.832031 6.238281 16 6.238281s11.742188-2.40625 16-6.238281c4.257812 3.839843 9.832031 6.238281 16 6.238281 2.808594 0 5.496094-.488281 8-1.367188v9.367188c0 13.230469-10.769531 24-24 24h-64c-13.230469 0-24-10.769531-24-24zm0 0" data-original="#000000" class="active-path" data-old_color="#000000" fill="#6B0505"/><path d="m496 175.191406c0-48.070312-39.121094-87.191406-87.191406-87.191406-21.074219 0-41 7.425781-56.808594 21.03125-15.800781-13.605469-35.734375-21.03125-56.808594-21.03125-48.070312 0-87.191406 39.121094-87.191406 87.191406 0 23.296875 9.070312 45.183594 25.535156 61.65625l110.464844 110.464844v16.6875c0 63.960938-52.039062 116-116 116s-116-52.039062-116-116v-92h32v-48h-80v48h32v92c0 72.785156 59.214844 132 132 132s132-59.214844 132-132v-16.6875l110.464844-110.464844c16.464844-16.464844 25.535156-38.359375 25.535156-61.65625zm-416 64.808594h48v16h-48zm272 92.6875-107.152344-107.152344c-13.441406-13.445312-20.847656-31.328125-20.847656-50.34375 0-39.253906 31.9375-71.191406 71.191406-71.191406 19.015625 0 36.898438 7.40625 50.34375 20.847656l6.464844 6.464844 6.464844-6.464844c13.445312-13.441406 31.328125-20.847656 50.34375-20.847656 39.253906 0 71.191406 31.9375 71.191406 71.191406 0 19.015625-7.40625 36.898438-20.847656 50.34375zm0 0" data-original="#000000" class="active-path" data-old_color="#000000" fill="#6B0505"/><path d="m444.960938 133.566406-10.496094 12.074219c8.597656 7.488281 13.535156 18.253906 13.535156 29.550781 0 10.472656-4.070312 20.320313-11.480469 27.71875l11.3125 11.3125c10.425781-10.414062 16.167969-24.277344 16.167969-39.03125 0-15.925781-6.945312-31.09375-19.039062-41.625zm0 0" data-original="#000000" class="active-path" data-old_color="#000000" fill="#6B0505"/><path d="m408.808594 136c4.703125 0 9.375.871094 13.894531 2.601562l5.710937-14.945312c-6.351562-2.425781-12.949218-3.65625-19.605468-3.65625zm0 0" data-original="#000000" class="active-path" data-old_color="#000000" fill="#6B0505"/><path d="m376 144h-48v40h-40v48h40v40h48v-40h40v-48h-40zm24 56v16h-40v40h-16v-40h-40v-16h40v-40h16v40zm0 0" data-original="#000000" class="active-path" data-old_color="#000000" fill="#6B0505"/></g> </svg>
